<mxfile host="app.diagrams.net" modified="2020-09-08T16:25:57.595Z" agent="5.0 (Macintosh; Intel Mac OS X 10_15_6) AppleWebKit/605.1.15 (KHTML, like Gecko) Version/13.1.2 Safari/605.1.15" etag="-OJ1s1SN8D2BqRzgnRZZ" version="13.6.9" type="github">
  <diagram id="mTpOHX2FkxcdvaH4g73R" name="Page-1">
    <mxGraphModel dx="786" dy="1125" grid="1" gridSize="10" guides="1" tooltips="1" connect="1" arrows="1" fold="1" page="1" pageScale="1" pageWidth="827" pageHeight="1169" math="0" shadow="0">
      <root>
        <mxCell id="0" />
        <mxCell id="1" parent="0" />
        <mxCell id="8w1AyOmW7HUsky3owjnb-1" value="FeedApp user&lt;br&gt;" style="shape=umlActor;verticalLabelPosition=bottom;verticalAlign=top;html=1;outlineConnect=0;fillColor=#a0522d;strokeColor=#6D1F00;fontColor=#ffffff;" vertex="1" parent="1">
          <mxGeometry x="350" y="100" width="30" height="60" as="geometry" />
        </mxCell>
        <mxCell id="8w1AyOmW7HUsky3owjnb-2" value="Register in FeedApp" style="ellipse;whiteSpace=wrap;html=1;" vertex="1" parent="1">
          <mxGeometry x="60" y="240" width="170" height="50" as="geometry" />
        </mxCell>
        <mxCell id="8w1AyOmW7HUsky3owjnb-3" value="Set up poll&lt;span style=&quot;color: rgba(0 , 0 , 0 , 0) ; font-family: monospace ; font-size: 0px&quot;&gt;%3CmxGraphModel%3E%3Croot%3E%3CmxCell%20id%3D%220%22%2F%3E%3CmxCell%20id%3D%221%22%20parent%3D%220%22%2F%3E%3CmxCell%20id%3D%222%22%20value%3D%22Register%20in%20FeedApp%22%20style%3D%22ellipse%3BwhiteSpace%3Dwrap%3Bhtml%3D1%3B%22%20vertex%3D%221%22%20parent%3D%221%22%3E%3CmxGeometry%20x%3D%2260%22%20y%3D%22240%22%20width%3D%22170%22%20height%3D%2250%22%20as%3D%22geometry%22%2F%3E%3C%2FmxCell%3E%3C%2Froot%3E%3C%2FmxGraphModel%3E&lt;/span&gt;" style="ellipse;whiteSpace=wrap;html=1;" vertex="1" parent="1">
          <mxGeometry x="240" y="240" width="170" height="50" as="geometry" />
        </mxCell>
        <mxCell id="8w1AyOmW7HUsky3owjnb-4" value="Access stored polls" style="ellipse;whiteSpace=wrap;html=1;" vertex="1" parent="1">
          <mxGeometry x="420" y="240" width="170" height="50" as="geometry" />
        </mxCell>
        <mxCell id="8w1AyOmW7HUsky3owjnb-5" value="Access poll website by number" style="ellipse;whiteSpace=wrap;html=1;" vertex="1" parent="1">
          <mxGeometry x="600" y="240" width="170" height="50" as="geometry" />
        </mxCell>
        <mxCell id="8w1AyOmW7HUsky3owjnb-6" value="Vote on poll" style="ellipse;whiteSpace=wrap;html=1;" vertex="1" parent="1">
          <mxGeometry x="600" y="320" width="170" height="50" as="geometry" />
        </mxCell>
      </root>
    </mxGraphModel>
  </diagram>
</mxfile>
